<svg xmlns="http://www.w3.org/2000/svg" viewBox="0 0 17 17"><defs><style>.cls-1,.cls-2{fill:none;stroke:#c5c5c5;stroke-miterlimit:10}.cls-2{fill:#c5c5c5;stroke-width:.25px}</style></defs><title>Asset 4</title><g id="Layer_2" data-name="Layer 2"><g id="Layer_1-2" data-name="Layer 1"><rect class="cls-1" x=".5" y=".5" width="16" height="16" rx="2" ry="2"/><path class="cls-2" d="M9 8.5L12.38 5a.32.32 0 1 0-.45-.45L8.5 8 5 4.62a.32.32 0 1 0-.45.45L8 8.5 4.62 12a.32.32 0 0 0 0 .45.31.31 0 0 0 .23.08.27.27 0 0 0 .23-.1L8.5 8.95 12 12.4a.37.37 0 0 0 .23.1.31.31 0 0 0 .23-.1.32.32 0 0 0 0-.45z"/></g></g></svg>