<svg xmlns="http://www.w3.org/2000/svg" width="133" height="40" viewBox="0 0 133 40">
  <g fill="none" fill-rule="evenodd">
    <path fill="#FFCC3E" fill-rule="nonzero" d="M64.0585,18.0201058 C64.0593541,18.7611699 63.6147211,19.4297403 62.9320238,19.7139267 C62.2493264,19.9981131 61.4630835,19.8419196 60.9400797,19.3182107 C60.4170758,18.7945019 60.2603639,18.0064695 60.5430504,17.3217331 C60.825737,16.6369966 61.4921214,16.1904767 62.2313333,16.1904762 C63.2393851,16.1910581 64.0567541,17.0095289 64.0585,18.0201058 L64.0585,18.0201058 Z"/>
    <polygon fill="#FFF" fill-rule="nonzero" points="55.57 14.914 58.069 14.914 58.069 35.366 55.57 35.366"/>
    <polygon fill="#FFF" fill-rule="nonzero" points="60.982 35.366 60.982 21.453 63.481 21.453 63.481 35.366"/>
    <path fill="#FFF" fill-rule="nonzero" d="M51.4488333 31.9661376C48.2265723 33.6190415 44.2899884 32.7848995 42.0105049 29.9662039 39.7310213 27.1475084 39.7310213 23.1138673 42.0105049 20.2951717 44.2899884 17.4764761 48.2265723 16.6423341 51.4488333 18.2952381L52.5666667 16.0941799C48.3084256 13.9142921 43.1094016 15.0189302 40.0993365 18.743117 37.0892714 22.4673037 37.0892714 27.7951301 40.0993365 31.5193169 43.1094016 35.2435037 48.3084256 36.3481417 52.5666667 34.168254L51.4488333 31.9661376zM75.9208333 32.2582011C73.9073678 33.2907864 71.44773 32.7694332 70.0234985 31.0081817 68.5992669 29.2469302 68.5992669 26.7266148 70.0234985 24.9653633 71.44773 23.2041118 73.9073678 22.6827585 75.9208333 23.7153439L77.0523889 21.4931217C73.9935694 19.9254193 70.2576418 20.7179616 68.0944824 23.3934583 65.931323 26.068955 65.931323 29.8971826 68.0944824 32.5726793 70.2576418 35.248176 73.9935694 36.0407183 77.0523889 34.4730159L75.9208333 32.2582011z"/>
    <polygon fill="#FFF" fill-rule="nonzero" points="88.924 35.144 91.93 35.154 85.848 26.59 91.119 21.263 87.561 21.285 82.763 26.146 82.763 14.703 80.263 14.703 80.263 35.154 82.763 35.154 82.763 29.709 84.087 28.371"/>
    <path fill="#FFCC3E" fill-rule="nonzero" d="M103.949 24.9153439C105.611874 23.3670614 106.176981 20.9650839 105.379493 18.8350537 104.582006 16.7050234 102.579951 15.2690201 100.311556 15.2L96.3004444 15.2 96.3004444 15.2 93.7671111 15.2 93.7671111 35.1555556 96.3004444 35.1555556 96.3004444 35.1555556 100.932222 35.1555556 100.932222 35.1322751C103.347661 35.0597271 105.443626 33.4405863 106.129241 31.1175574 106.814856 28.7945286 105.935136 26.2927411 103.947944 24.9142857L103.949 24.9153439zM100.311556 17.7269841C101.88467 17.8244207 103.130811 19.0963005 103.199768 20.6748518 103.268725 22.2534032 102.138262 23.6296227 100.579667 23.8645503 100.439772 23.883913 100.298663 23.8931081 100.157444 23.8920635L96.2972778 23.8920635 96.2972778 17.7269841 100.311556 17.7269841zM100.932222 32.6063492L100.932222 32.6243386 96.2972778 32.6243386 96.2972778 26.4391534 100.781278 26.4391534C100.919307 26.4380399 101.057237 26.4468811 101.194 26.4656085 102.752191 26.6993342 103.883474 28.0738618 103.816438 29.6519166 103.749403 31.2299715 102.505649 32.5031018 100.933278 32.6031746L100.932222 32.6063492zM121.004667 21.0687831L118.505111 21.0687831 118.505111 29.5566138C118.426202 31.3789324 116.910515 32.8047834 115.091411 32.7679824 113.272307 32.7311814 111.815233 31.2451905 111.809722 29.421164L111.809722 29.421164 111.809722 21.0687831 109.310167 21.0687831 109.310167 29.4179894C109.322064 32.5095331 111.727875 35.0598714 114.806226 35.2442185 117.884576 35.4285656 120.576128 33.183483 120.955056 30.1153439L120.999389 30.0656085 121.004667 21.0687831z"/>
    <path fill="#FFF" fill-rule="nonzero" d="M35.0317778,6.68571429 C34.5641667,6.31746032 32.8731667,5.8021164 31.8112778,5.5026455 C31.6440465,4.84987534 31.4439383,4.20601679 31.2117222,3.57354497 C30.2944444,1.25185185 30.0136667,0.97037037 27.6608333,0.529100529 C25.5085556,0.13015873 22.2722222,0.0571428571 19.0063333,0.131216931 C15.7341111,0.0571428571 12.5041111,0.131216931 10.3507778,0.531216931 C8.00005556,0.97037037 7.71822222,1.25185185 6.80094444,3.57248677 C6.57319938,4.19030012 6.37696412,4.81933231 6.213,5.45714286 C5.17011111,5.74814815 3.32605556,6.3037037 2.83522222,6.68465608 C2.13644444,7.23492063 -0.687166667,12.0582011 0.156222222,13.3333333 C0.962666667,14.6486772 1.91688889,15.2698413 2.72333333,14.6857143 C3.49388889,14.0275132 4.28133333,8.10793651 4.28133333,8.10793651 C4.77638889,8.12698413 5.20705556,8.14179894 5.5765,8.15238095 C4.52938889,13.2391534 3.50022222,21.9587302 5.14161111,32.3280423 C5.31366667,33.4222222 6.04727778,34.1746032 7.27383333,34.6560847 C7.26126982,34.756134 7.25457312,34.8568361 7.25377778,34.957672 L7.25377778,37.3142857 C7.25377778,38.7005497 8.37475727,39.8243386 9.75755556,39.8243386 C11.1403538,39.8243386 12.2613333,38.7005497 12.2613333,37.3142857 L12.2613333,35.3026455 C14.0040556,35.3206349 16.454,35.3164021 19.0063333,35.3026455 C21.4446667,35.3174603 23.788,35.3216931 25.5138333,35.3026455 L25.5138333,37.3132275 C25.5138333,38.6991992 26.6345765,39.8227513 28.0170833,39.8227513 C29.3995901,39.8227513 30.5203333,38.6991992 30.5203333,37.3132275 L30.5203333,34.9619048 C30.5203333,34.8878307 30.5203333,34.8169312 30.5097778,34.7439153 C31.8746111,34.2687831 32.6895,33.4920635 32.8721111,32.3322751 C34.5166667,21.9587302 33.4822222,13.2380952 32.4351111,8.14814815 C32.7718333,8.13862434 33.1528889,8.12486772 33.5825,8.10899471 C33.5825,8.10899471 34.371,14.0296296 35.1415556,14.6867725 C35.948,15.2708995 36.9011667,14.6497354 37.7086667,13.3343915 C38.5520556,12.0582011 35.7284444,7.23492063 35.0317778,6.68571429 Z M15.3984444,1.94708995 L22.9910556,1.94708995 C23.8217778,1.94708995 23.7426111,2.39365079 23.7426111,2.94391534 C23.7426111,3.49417989 23.8217778,3.94179894 22.9910556,3.94179894 L15.3963333,3.94179894 C14.5656111,3.94179894 14.6078333,3.4952381 14.6078333,2.94391534 C14.6078333,2.39259259 14.5666667,1.94708995 15.3963333,1.94708995 L15.3984444,1.94708995 Z M13.3401111,31.9502646 C12.7986111,32.4582011 9.27938889,31.7058201 8.21222222,31.5015873 C7.14505556,31.2973545 7.22738889,31.4613757 6.85794444,30.6433862 C6.4885,29.8253968 6.63311111,27.6497354 6.85794444,27.5354497 C7.08277778,27.421164 7.03,27.3820106 8.04755556,27.7005291 C10.7941111,28.5587302 13.8583889,30.589418 13.338,31.9502646 L13.3401111,31.9502646 Z M31.179,30.6433862 C30.8106111,31.4613757 30.8918889,31.2973545 29.8257778,31.5015873 C28.7596667,31.7058201 25.2383333,32.4539683 24.6968333,31.9502646 C24.1764444,30.589418 27.2407222,28.5587302 29.9893889,27.7005291 C31.0069444,27.3830688 30.9531111,27.4232804 31.179,27.5354497 C31.4048889,27.647619 31.5431667,29.8253968 31.1737222,30.6433862 L31.179,30.6433862 Z M31.7437222,20.8666667 C31.2687222,22.3724868 30.5076667,23.3333333 29.1048333,23.4984127 C27.702,23.6634921 10.7001667,23.6687831 8.85716667,23.4232804 C7.01416667,23.1777778 6.69222222,22.2973545 6.21827778,20.7925926 C5.74433333,19.2878307 7.03422222,10.4867725 7.52927778,8.87830688 C8.02433333,7.26984127 8.21644444,6.7047619 10.1681667,6.24867725 C12.1198889,5.79259259 26.3741111,5.9026455 27.7748333,6.32275132 C29.1755556,6.74285714 29.9207778,7.34603175 30.4137222,8.95449735 C30.9066667,10.562963 32.2134444,19.3650794 31.7373889,20.8666667 L31.7437222,20.8666667 Z"/>
    <path fill="#FFCC3E" fill-rule="nonzero" d="M129.094444,26.7502646 C127.642,26.0338624 126.751111,25.5428571 126.751111,24.5280423 C126.751111,23.5333333 127.484722,22.8645503 128.575111,22.8645503 C129.619056,22.8645503 130.4825,23.226455 131.142222,23.9407407 L131.466278,24.2920635 L132.788889,22.4021164 L132.570389,22.173545 C131.591889,21.1470899 130.224944,20.6042328 128.616278,20.6042328 C126.107222,20.6042328 124.2885,22.2910053 124.2885,24.6137566 C124.2885,27.226455 126.294056,28.1798942 127.908,28.9470899 L128.013556,28.9989418 C129.516667,29.7301587 130.5015,30.3026455 130.5015,31.5502646 C130.5015,32.4550265 129.946278,33.421164 128.390389,33.421164 C127.26488,33.408019 126.20227,32.8986074 125.4855,32.0285714 L125.168833,31.6412698 L123.791333,33.5873016 L124.002444,33.8169312 C125.083333,35.026455 126.600167,35.6613757 128.391444,35.6613757 C131.7555,35.6613757 132.948278,33.3904762 132.948278,31.4444444 C132.948278,28.6116402 130.811833,27.5798942 129.094444,26.7502646 Z"/>
  </g>
</svg>
